<?xml version="1.0" standalone="no"?>
<!DOCTYPE svg PUBLIC "-//W3C//DTD SVG 20010904//EN"
 "http://www.w3.org/TR/2001/REC-SVG-20010904/DTD/svg10.dtd">
<svg version="1.0" xmlns="http://www.w3.org/2000/svg"
 width="512.000000pt" height="512.000000pt" viewBox="0 0 512.000000 512.000000"
 preserveAspectRatio="xMidYMid meet">
<metadata>
Created by potrace 1.14, written by Peter Selinger 2001-2017
</metadata>
<g transform="translate(0.000000,512.000000) scale(0.100000,-0.100000)"
fill="#000000" stroke="none">
<path d="M0 2560 l0 -2560 2178 0 c1555 0 2181 3 2189 11 8 8 13 8 17 0 5 -7
82 -11 237 -11 l229 0 -16 25 c-20 31 -12 64 11 45 12 -10 15 -10 15 3 0 8
-10 21 -22 30 -22 14 -23 16 -7 59 10 28 12 53 8 67 -9 24 -29 28 -29 6 0 -8
-9 -15 -20 -15 -11 0 -20 3 -20 8 0 4 -14 15 -31 24 -27 16 -32 16 -45 3 -21
-21 -31 -19 -50 10 -19 30 -38 32 -56 7 -12 -17 -60 -23 -74 -10 -6 7 49 48
65 48 6 0 11 5 11 11 0 7 10 9 24 7 20 -4 27 1 36 22 21 50 83 64 131 29 24
-17 34 -19 66 -10 34 10 40 9 55 -12 26 -33 23 -51 -5 -33 -12 9 -32 13 -45 9
-24 -6 -29 -19 -9 -26 9 -4 8 -8 -3 -17 -13 -10 -13 -11 2 -7 9 3 19 -1 22 -9
6 -17 43 -19 48 -3 2 7 21 14 43 16 33 3 37 2 25 -12 -8 -10 -9 -15 -1 -15 6
0 11 -4 11 -10 0 -5 -7 -10 -15 -10 -8 0 -15 -3 -15 -7 0 -11 50 -33 72 -33
11 0 18 -7 18 -18 0 -10 9 -25 20 -35 24 -20 25 -30 5 -47 -13 -11 -13 -15 -3
-21 7 -5 21 -9 31 -9 16 0 17 28 17 451 0 419 -1 453 -17 465 -10 7 -25 14
-33 14 -17 0 -44 53 -37 72 5 16 -10 48 -24 48 -5 0 -13 -9 -17 -21 -8 -19 -8
-19 -22 6 -13 24 -12 28 5 43 11 10 28 34 39 54 25 49 53 78 75 78 13 0 20 10
25 31 3 17 6 881 6 1920 l0 1889 -207 0 -207 0 23 -21 c38 -35 15 -46 -74 -35
-69 9 -75 11 -75 33 0 23 -2 23 -100 23 l-100 0 0 -25 c0 -19 -5 -25 -16 -23
-33 6 -25 -21 10 -36 39 -16 44 -30 21 -63 -13 -19 -19 -20 -45 -12 -19 7 -31
19 -35 38 -6 26 -24 41 -68 55 -10 3 -24 20 -30 36 l-11 30 -2103 0 -2103 0 0
-2560z m1122 2351 c45 1 101 5 123 10 28 6 46 4 60 -5 11 -7 38 -16 60 -19 63
-10 113 -27 127 -41 8 -7 36 -15 63 -18 39 -5 55 -13 77 -37 15 -17 38 -31 50
-31 32 -1 56 -22 69 -60 11 -30 14 -31 46 -25 38 7 63 -7 63 -35 0 -11 11 -22
28 -28 36 -13 63 -39 56 -56 -3 -8 -1 -17 5 -21 6 -3 11 -1 11 4 0 6 5 11 10
11 6 0 10 -8 10 -18 0 -10 5 -23 11 -29 7 -7 -6 -12 -42 -16 -59 -7 -75 -18
-65 -42 5 -14 13 -16 39 -10 17 3 51 9 74 12 38 4 44 2 52 -18 8 -22 5 -25
-28 -32 -20 -5 -60 -6 -88 -3 -29 2 -55 1 -57 -3 -3 -4 16 -18 42 -30 44 -22
45 -24 27 -37 -25 -19 -31 -18 -55 8 -18 20 -24 21 -51 11 -17 -7 -37 -9 -45
-6 -16 6 -19 29 -4 38 12 8 13 25 1 44 -14 22 -33 4 -21 -20 12 -22 3 -24 -34
-8 -19 9 -34 8 -70 -6 -47 -18 -47 -18 -73 6 -18 16 -27 20 -30 12 -3 -7 -9
-13 -14 -13 -10 0 -99 85 -99 94 0 3 16 6 35 6 27 0 35 4 35 18 0 10 10 26 23
37 l22 19 -28 10 c-23 9 -27 14 -22 36 4 17 1 31 -9 39 -15 13 -32 -1 -21 -18
10 -17 -16 -23 -33 -9 -11 9 -35 12 -72 10 -30 -2 -83 -4 -117 -4 -45 0 -63
-4 -63 -13 0 -17 51 -28 88 -21 16 3 40 -1 60 -12 l32 -18 -46 -13 -47 -14 29
-12 c25 -11 32 -10 49 6 22 19 55 10 55 -15 0 -15 16 -47 44 -88 10 -15 15
-31 13 -36 -9 -14 8 -33 32 -35 14 -1 20 -6 16 -15 -3 -7 -5 -18 -5 -23 0 -16
-26 -10 -45 11 -13 14 -25 18 -47 13 -30 -6 -30 -5 -26 30 4 36 -4 48 -17 27
-3 -5 -17 -10 -30 -10 -13 0 -27 5 -30 10 -3 6 -18 10 -33 9 -26 -1 -25 -2 10
-17 42 -19 59 -52 26 -52 -25 0 -56 16 -89 47 -17 16 -46 27 -89 34 -35 5 -71
14 -81 19 -20 11 -86 14 -76 3 4 -3 35 -18 69 -33 133 -56 168 -74 168 -87 0
-7 -2 -13 -4 -13 -12 0 -74 25 -86 35 -8 7 -43 22 -77 34 -54 18 -203 103
-203 115 0 5 45 0 115 -13 32 -5 57 -5 69 1 16 8 9 14 -45 40 -35 17 -72 37
-82 46 -10 9 -30 17 -45 18 -15 2 -43 8 -62 13 -48 15 -60 14 -61 -6 0 -14 -2
-13 -9 5 -6 13 -18 22 -31 22 -12 0 -38 12 -58 27 -66 50 -66 51 -6 58 30 4
55 10 55 13 0 3 -7 14 -17 24 -9 11 -11 18 -5 18 7 0 12 9 12 19 0 29 13 33
96 34 41 0 74 3 74 5 0 3 -7 14 -17 24 -9 10 -13 21 -10 24 12 12 116 9 129
-4 17 -17 68 -16 68 2 0 8 -9 18 -21 21 -16 5 -18 9 -8 21 8 10 15 11 24 4 8
-6 50 -10 97 -9z m2332 -27 c9 -8 16 -22 16 -29 0 -28 -23 -27 -45 1 -16 20
-20 31 -12 36 17 11 24 10 41 -8z m-104 -24 c0 -5 -5 -10 -11 -10 -5 0 -7 5
-4 10 3 6 8 10 11 10 2 0 4 -4 4 -10z m181 -64 c13 -14 11 -26 -5 -26 -15 0
-28 48 -18 65 4 5 8 1 10 -10 2 -11 8 -24 13 -29z m1106 -43 c-45 -16 -44 -16
-55 17 -9 26 -8 32 11 45 21 15 24 14 49 -17 l27 -33 -32 -12z m121 17 c6 0
12 -5 12 -10 0 -12 -50 -2 -65 13 -7 6 -2 8 15 3 14 -3 31 -6 38 -6z m-82
-149 c3 -9 8 -10 17 -3 7 6 18 7 25 3 9 -5 3 -18 -20 -43 -38 -41 -76 -62
-130 -72 -33 -6 -38 -4 -38 11 1 22 72 103 91 103 8 0 21 10 28 23 11 17 15
19 18 7 3 -8 7 -21 9 -29z m-3186 -50 c0 -24 -18 -37 -32 -23 -8 8 -7 16 2 27
17 21 30 19 30 -4z m560 -87 c0 -2 -7 -4 -15 -4 -8 0 -15 4 -15 10 0 5 7 7 15
4 8 -4 15 -8 15 -10z m-450 -170 c0 -10 6 -14 15 -10 8 3 23 -4 34 -15 12 -13
34 -21 65 -22 54 -4 89 -27 41 -27 -17 -1 -54 -3 -83 -6 -48 -4 -55 -2 -77 23
-24 28 -31 53 -18 66 11 12 23 7 23 -9z m-860 -14 c-19 -13 -30 -13 -30 0 0 6
10 10 23 10 18 0 19 -2 7 -10z m-287 -17 c-13 -2 -35 -2 -50 0 -16 2 -5 4 22
4 28 0 40 -2 28 -4z m1402 -3 c3 -5 15 -10 26 -10 22 0 58 -36 59 -57 0 -15
-26 -17 -35 -4 -3 5 -19 9 -36 9 -16 -1 -35 4 -41 10 -9 9 -4 12 20 12 18 0
32 5 32 11 0 6 -9 9 -19 6 -12 -3 -27 3 -37 14 -16 18 -16 19 4 19 11 0 24 -4
27 -10z m89 4 c16 -6 23 -34 8 -34 -10 0 -32 22 -32 32 0 10 3 10 24 2z
m-1189 -32 c15 -8 16 -11 5 -12 -18 0 -40 19 -40 35 0 7 3 6 8 -1 4 -6 16 -16
27 -22z m767 -27 c11 -15 -21 -43 -43 -38 -15 4 -19 11 -15 27 3 11 6 30 6 40
0 19 0 19 23 0 12 -10 25 -23 29 -29z m-284 6 c3 -8 -1 -12 -9 -9 -7 2 -15 10
-17 17 -3 8 1 12 9 9 7 -2 15 -10 17 -17z m79 -22 c6 -6 32 -12 58 -13 41 -2
51 -7 98 -54 29 -29 61 -59 72 -67 19 -14 18 -14 -13 -15 -26 0 -49 14 -112
66 l-80 66 0 -31 c0 -17 5 -31 10 -31 6 0 26 -16 46 -35 19 -19 41 -35 49 -35
7 0 17 -9 20 -20 3 -11 13 -20 21 -20 17 0 15 -31 -2 -37 -6 -2 -31 12 -56 31
-32 25 -48 32 -56 24 -18 -18 -38 -2 -68 59 -16 32 -34 62 -41 66 -14 9 -17
39 -6 50 10 11 48 8 60 -4z m-803 -24 c4 -10 -1 -15 -14 -15 -11 0 -20 7 -20
15 0 8 6 15 14 15 8 0 16 -7 20 -15z m354 3 c-2 -6 -10 -14 -16 -16 -7 -2 -10
2 -6 12 7 18 28 22 22 4z m991 -26 c11 -21 27 -44 35 -51 22 -18 21 -53 -1
-49 -10 2 -20 17 -24 36 -9 43 -12 45 -66 52 -26 3 -48 11 -51 18 -3 9 2 10
22 2 22 -8 28 -6 38 10 18 28 25 25 47 -18z m-589 -27 c0 -16 -45 -21 -54 -6
-8 12 4 21 31 21 14 0 23 -6 23 -15z m-25 -95 c3 -5 1 -10 -4 -10 -6 0 -11 5
-11 10 0 6 2 10 4 10 3 0 8 -4 11 -10z m387 -60 c-4 -36 -21 -51 -43 -39 -24
12 -24 20 2 48 25 27 45 22 41 -9z m-1252 11 c0 -11 -26 -22 -34 -14 -12 12
-5 23 14 23 11 0 20 -4 20 -9z m3621 -16 c0 -5 -14 -13 -31 -16 -18 -4 -37
-12 -43 -18 -15 -15 -37 -14 -37 2 0 29 110 61 111 32z m297 -37 c13 -13 17
-48 5 -48 -12 0 -43 33 -43 47 0 16 22 17 38 1z m732 -13 c7 -8 8 -15 2 -15
-5 0 -15 7 -22 15 -7 8 -8 15 -2 15 5 0 15 -7 22 -15z m-802 -66 c17 -26 10
-34 -18 -19 -17 9 -28 8 -57 -7 -36 -19 -46 -31 -57 -65 -3 -11 -11 -15 -21
-12 -22 9 -19 27 10 52 14 12 25 26 25 32 0 5 8 10 19 10 10 0 32 7 47 15 37
19 37 19 52 -6z m-4000 -81 c-3 -7 -11 -13 -18 -13 -7 0 -15 6 -17 13 -3 7 4
12 17 12 13 0 20 -5 18 -12z m3792 -45 c-1 -12 -69 -83 -80 -83 -19 0 -10 18
27 54 36 35 53 44 53 29z m1060 -4 c0 -12 -29 -38 -43 -39 -4 0 0 11 10 25 19
26 33 32 33 14z m-749 -40 c14 -26 8 -32 -25 -23 -21 5 -26 12 -26 35 0 26 2
29 20 19 11 -6 25 -20 31 -31z m-140 -42 c-5 -5 -26 -11 -46 -12 -28 -1 -35 1
-30 12 3 8 5 17 5 19 0 2 13 4 29 4 22 0 32 6 38 23 7 21 8 21 11 -7 2 -16 -1
-33 -7 -39z m-3961 -37 c0 -5 -4 -10 -10 -10 -5 0 -10 5 -10 10 0 6 5 10 10
10 6 0 10 -4 10 -10z m3944 -99 c5 -55 4 -62 -10 -57 -13 5 -15 2 -11 -14 3
-13 0 -20 -9 -20 -18 0 -20 140 -2 158 18 18 25 4 32 -67z m-2459 49 c3 -5 -1
-10 -9 -10 -9 0 -16 5 -16 10 0 6 4 10 9 10 6 0 13 -4 16 -10z m-1298 -46 c-3
-3 -12 -4 -19 -1 -8 3 -5 6 6 6 11 1 17 -2 13 -5z m3825 -81 c21 -19 24 -43 4
-43 -16 0 -48 45 -39 54 9 9 15 8 35 -11z m-3222 -17 c0 -18 -17 -29 -30 -21
-8 5 -7 11 1 21 15 18 29 18 29 0z m-90 -26 c0 -5 -7 -10 -16 -10 -8 0 -12 5
-9 10 3 6 10 10 16 10 5 0 9 -4 9 -10z m2810 -60 c0 -5 -2 -10 -4 -10 -3 0 -8
5 -11 10 -3 6 -1 10 4 10 6 0 11 -4 11 -10z m-3120 -30 c0 -5 -5 -10 -11 -10
-5 0 -7 5 -4 10 3 6 8 10 11 10 2 0 4 -4 4 -10z m360 -80 c0 -5 -4 -10 -10
-10 -5 0 -10 5 -10 10 0 6 5 10 10 10 6 0 10 -4 10 -10z m2720 -2 c-1 -24 -26
-107 -34 -115 -9 -8 0 103 10 118 8 13 24 11 24 -3z m-1910 -29 c0 -5 -7 -9
-15 -9 -9 0 -12 6 -9 15 6 15 24 11 24 -6z m18 -102 c3 -14 -1 -18 -20 -15
-12 2 -24 11 -26 21 -3 14 1 18 20 15 12 -2 24 -11 26 -21z m-1340 -9 c3 -13
-3 -18 -21 -18 -29 0 -37 7 -30 27 8 19 47 12 51 -9z m102 -83 c0 -8 -4 -15
-10 -15 -5 0 -10 7 -10 15 0 8 5 15 10 15 6 0 10 -7 10 -15z m730 -86 c0 -5
-7 -9 -15 -9 -8 0 -15 7 -15 15 0 9 6 12 15 9 8 -4 15 -10 15 -15z m215 1 c3
-5 -1 -10 -9 -10 -9 0 -16 5 -16 10 0 6 4 10 9 10 6 0 13 -4 16 -10z m-75 -24
c0 -3 -4 -8 -10 -11 -5 -3 -10 -1 -10 4 0 6 5 11 10 11 6 0 10 -2 10 -4z m199
-25 c9 -6 10 -10 2 -16 -16 -9 -44 2 -36 15 8 12 16 12 34 1z m-589 -57 c0 -9
-5 -14 -12 -12 -18 6 -21 28 -4 28 9 0 16 -7 16 -16z m450 -4 c0 -5 -2 -10 -4
-10 -3 0 -8 5 -11 10 -3 6 -1 10 4 10 6 0 11 -4 11 -10z m1663 -284 c13 -10
17 -27 16 -77 -1 -89 -16 -109 -80 -109 -44 0 -54 4 -80 32 -38 42 -46 68 -25
80 9 5 16 18 16 28 0 42 113 76 153 46z m112 -39 c21 -30 19 -57 -5 -57 -52 0
-92 44 -77 85 8 19 62 1 82 -28z m-1675 -195 c0 -5 -6 -16 -13 -27 -16 -20
-33 -5 -23 20 6 16 36 21 36 7z m679 -5 c13 -17 5 -27 -24 -27 -27 0 -35 8
-28 26 7 18 37 18 52 1z m-114 -38 c-4 -5 -13 -9 -22 -9 -13 0 -13 3 -3 15 13
15 35 11 25 -6z m129 -58 c19 -21 14 -41 -9 -41 -17 0 -38 36 -30 50 9 15 20
12 39 -9z m-94 -11 c0 -22 -14 -40 -31 -40 -21 0 -26 29 -8 47 12 12 39 7 39
-7z m979 -10 c-22 -14 -34 2 -13 17 13 10 20 10 23 2 2 -6 -3 -15 -10 -19z
m126 -22 c25 -19 30 -20 59 -8 30 13 47 15 194 26 65 5 72 4 71 -13 0 -10 -3
-13 -6 -5 -6 14 -63 17 -63 2 0 -5 11 -10 25 -10 18 0 25 -5 25 -19 0 -34 12
-51 34 -51 33 0 40 -12 14 -27 -17 -9 -19 -12 -6 -13 9 0 32 -15 51 -33 19
-18 40 -31 46 -29 16 5 13 -24 -4 -38 -11 -9 -26 -9 -65 -1 -28 6 -64 11 -80
11 -33 0 -50 19 -27 31 9 6 13 17 10 29 -6 22 -11 24 -33 11 -25 -16 -32 0
-10 22 20 18 21 21 5 29 -9 6 -28 6 -43 2 -15 -4 -41 -6 -57 -5 -19 1 -41 -6
-57 -18 -14 -12 -31 -21 -37 -21 -6 0 -11 -15 -12 -32 -1 -27 -2 -29 -7 -11
-4 12 -19 35 -34 52 -33 37 -35 51 -7 51 14 0 19 5 17 18 -2 9 -11 16 -20 14
-9 -1 -19 2 -23 8 -3 5 -17 10 -31 10 -28 0 -33 26 -6 33 35 9 50 7 77 -15z
m-1195 -37 c0 -27 -26 -46 -34 -25 -6 17 9 44 25 44 5 0 9 -8 9 -19z m-740 -5
c0 -20 -20 -32 -62 -40 -47 -9 -49 5 -5 33 37 24 67 27 67 7z m888 -49 c3 -23
0 -27 -23 -27 -33 0 -45 28 -20 47 26 18 39 12 43 -20z m1702 -11 c-15 -15
-33 4 -19 20 10 12 14 12 20 2 5 -7 4 -17 -1 -22z m-2397 -16 c14 -11 37 -20
50 -20 14 0 28 -4 32 -9 6 -10 -7 -15 -65 -26 -19 -4 -45 -13 -58 -21 -25 -17
-88 -6 -86 14 1 7 2 22 3 35 1 16 3 19 10 8 5 -7 21 -15 35 -16 15 -2 33 -9
41 -15 13 -10 15 -8 15 14 0 20 -6 27 -27 32 -25 7 -25 8 -8 15 29 11 30 11
58 -11z m567 -25 c0 -16 -27 -32 -37 -21 -7 7 16 36 28 36 5 0 9 -7 9 -15z
m1348 -2 c12 -21 -2 -54 -28 -71 -15 -9 -26 -9 -44 -1 -38 17 -41 40 -11 66
31 27 70 30 83 6z m-1508 -18 c0 -8 -4 -15 -10 -15 -5 0 -10 -4 -10 -10 0 -5
3 -9 8 -9 19 3 23 -2 12 -16 -9 -10 -31 -15 -72 -15 -33 0 -68 -5 -79 -10 -24
-13 -25 -47 -1 -53 13 -4 12 -5 -5 -6 -13 -1 -27 8 -33 19 -12 22 -35 17 -26
-6 7 -17 -2 -18 -37 -1 -15 6 -27 18 -27 24 0 16 100 62 150 69 14 2 46 12 70
23 54 25 60 25 60 6z m2120 -10 c0 -8 -4 -15 -10 -15 -5 0 -10 7 -10 15 0 8 5
15 10 15 6 0 10 -7 10 -15z m-870 -20 c23 -12 60 -68 60 -90 0 -11 -51 -12
-77 -3 -39 14 -43 28 -8 28 29 0 34 18 8 27 -34 12 -43 24 -30 38 15 18 13 18
47 0z m780 5 c0 -5 -2 -10 -4 -10 -3 0 -8 5 -11 10 -3 6 -1 10 4 10 6 0 11 -4
11 -10z m-2520 -55 c0 -17 -2 -18 -24 -9 -23 9 -20 24 4 24 11 0 20 -7 20 -15z
m152 -37 c-12 -12 -62 -3 -62 13 0 6 4 8 8 5 5 -3 17 5 27 17 l18 21 10 -22
c7 -16 7 -26 -1 -34z m966 4 c4 -24 -7 -29 -26 -10 -18 18 -15 40 6 36 9 -2
18 -13 20 -26z m1073 -33 c28 -39 16 -51 -46 -47 -59 4 -79 26 -51 57 29 32
70 27 97 -10z m-2103 5 c7 -2 10 -8 7 -14 -3 -5 -2 -10 4 -10 12 0 41 -28 41
-41 0 -20 -50 -8 -74 18 l-25 27 -35 -19 c-42 -23 -54 -16 -31 19 22 34 53 39
113 20z m472 8 c0 -4 -5 -13 -11 -19 -8 -8 -7 -16 2 -31 17 -27 49 -12 49 23
0 16 6 25 15 25 8 0 15 -4 15 -9 0 -14 39 -24 53 -14 7 5 25 15 41 21 25 11
28 11 22 -3 -5 -13 -1 -15 17 -9 20 6 19 4 -7 -25 -19 -20 -36 -29 -47 -26
-21 7 -33 -10 -25 -32 5 -12 9 -13 20 -4 21 17 30 -4 10 -23 -35 -36 -82 -66
-102 -66 -15 0 -26 11 -38 38 -40 92 -45 97 -64 63 -7 -14 -7 -22 0 -26 20
-13 -1 -23 -60 -30 -53 -6 -64 -11 -86 -41 -15 -19 -23 -38 -18 -45 4 -7 3
-10 -2 -7 -5 3 -18 8 -29 12 -16 6 -17 9 -5 16 12 7 12 12 2 22 -21 21 -14 68
16 97 36 36 89 64 97 51 3 -5 21 -9 39 -8 26 1 38 8 50 30 16 26 46 39 46 20z
m-1470 -56 c111 -25 145 -41 142 -67 -1 -13 -6 -26 -10 -29 -4 -3 -13 -18 -20
-34 -11 -26 -16 -28 -50 -22 -49 9 -72 9 -103 1 -19 -5 -33 0 -57 20 -39 33
-72 28 -109 -14 l-25 -28 -38 19 c-30 15 -37 23 -33 39 3 12 13 23 22 27 9 3
24 16 33 28 26 33 102 65 173 73 6 0 39 -5 75 -13z m1080 -26 c0 -5 -4 -10
-10 -10 -5 0 -10 5 -10 10 0 6 5 10 10 10 6 0 10 -4 10 -10z m610 -10 c0 -5
-9 -10 -19 -10 -11 0 -23 5 -26 10 -4 6 5 10 19 10 14 0 26 -4 26 -10z m1274
-3 c15 -11 16 -16 5 -41 -7 -15 -25 -34 -41 -42 -25 -13 -28 -13 -38 7 -16 28
-5 63 22 77 30 14 31 14 52 -1z m53 -9 c-3 -8 -6 -5 -6 6 -1 11 2 17 5 13 3
-3 4 -12 1 -19z m-2057 -13 c0 -8 -7 -15 -15 -15 -16 0 -20 12 -8 23 11 12 23
8 23 -8z m710 -40 c0 -8 -4 -15 -10 -15 -5 0 -10 7 -10 15 0 8 5 15 10 15 6 0
10 -7 10 -15z m28 -63 c42 -37 59 -81 35 -89 -7 -3 -17 6 -22 19 -5 13 -32 39
-61 57 -46 30 -51 36 -34 42 31 12 37 10 82 -29z m-1998 -2 c0 -5 -4 -10 -10
-10 -5 0 -10 5 -10 10 0 6 5 10 10 10 6 0 10 -4 10 -10z m3488 -18 c7 -44 -41
-70 -68 -37 -10 12 -10 21 -1 41 15 34 64 31 69 -4z m-1728 8 c12 -8 11 -10
-7 -10 -13 0 -23 5 -23 10 0 13 11 13 30 0z m-1593 -6 c-3 -3 -12 -4 -19 -1
-8 3 -5 6 6 6 11 1 17 -2 13 -5z m1761 -10 l23 -7 -23 -13 c-13 -7 -36 -20
-51 -27 l-29 -14 27 -22 c21 -16 31 -18 41 -10 11 9 18 8 30 -2 13 -10 17 -10
24 1 5 8 5 19 0 26 -13 15 -3 23 20 17 46 -12 18 -65 -41 -78 -18 -4 -26 -11
-23 -20 8 -20 -11 -26 -47 -13 -39 13 -61 37 -53 57 2 8 -5 24 -17 37 -23 25
-20 54 7 54 10 0 14 -5 11 -15 -4 -8 -2 -17 3 -20 6 -4 10 2 10 12 0 10 10 23
23 29 28 14 36 15 65 8z m-1960 -26 c-3 -7 -12 -14 -21 -16 -12 -2 -15 1 -11
12 7 19 38 22 32 4z m1752 -2 c0 -7 -9 -21 -20 -31 -16 -15 -22 -15 -35 -5
-28 23 -18 46 20 47 22 1 35 -4 35 -11z m-1392 -13 c2 -8 -5 -13 -17 -13 -12
0 -21 6 -21 16 0 18 31 15 38 -3z m610 -9 c27 -8 28 -25 2 -49 -18 -16 -22
-17 -34 -4 -8 8 -17 24 -21 37 -7 24 7 28 53 16z m-104 -25 c32 -25 33 -42 2
-58 -19 -11 -28 -10 -53 2 -38 20 -57 43 -49 62 8 22 68 19 100 -6z m1466 11
c0 -5 -11 -10 -24 -10 -29 0 -37 -17 -23 -48 9 -20 17 -23 56 -21 48 3 66 -12
34 -30 -28 -14 -109 26 -124 61 -17 42 -6 58 41 58 22 0 40 -4 40 -10z m50
-42 c0 -12 -6 -9 -26 13 -19 22 -19 22 4 8 12 -8 22 -17 22 -21z m-1760 -14
c11 -13 9 -20 -17 -45 -16 -17 -46 -34 -67 -39 -31 -7 -38 -5 -51 13 -10 14
-11 25 -4 38 23 43 114 64 139 33z m-422 -6 c-3 -7 -11 -13 -18 -13 -7 0 -15
6 -17 13 -3 7 4 12 17 12 13 0 20 -5 18 -12z m1271 -4 c-8 -9 -18 -10 -40 -2
-39 13 -37 17 10 15 30 -1 37 -4 30 -13z m360 2 c21 -25 -39 -63 -62 -40 -9 9
23 54 38 54 7 0 18 -6 24 -14z m-259 -12 c0 -17 -22 -14 -28 4 -2 7 3 12 12
12 9 0 16 -7 16 -16z m-1160 -23 c0 -23 -35 -68 -43 -55 -5 9 29 74 39 74 2 0
4 -9 4 -19z m1647 -17 c6 -17 -6 -45 -23 -51 -5 -2 -18 3 -28 10 -15 11 -17
17 -7 35 14 26 49 29 58 6z m208 -20 c51 -33 27 -109 -32 -102 -36 4 -41 26
-7 30 42 5 54 32 25 57 -27 23 -43 26 -72 11 -23 -13 -25 -43 -3 -64 13 -13
13 -16 1 -16 -35 0 -56 63 -31 92 15 16 26 19 57 14 21 -4 49 -13 62 -22z
m-1470 -5 c40 -19 45 -25 45 -54 0 -29 -4 -35 -34 -45 -43 -14 -81 -5 -100 26
-21 31 -20 50 4 74 25 25 30 25 85 -1z m190 11 c3 -5 14 -10 24 -10 24 0 54
-34 49 -57 -5 -27 -38 -27 -88 0 -52 27 -62 53 -28 66 31 13 36 13 43 1z m569
-12 c13 -18 25 -22 66 -21 27 0 50 -3 50 -8 0 -5 11 -7 25 -3 31 8 77 -19 69
-41 -5 -11 -21 -15 -60 -15 -30 0 -54 -4 -54 -8 0 -11 -61 -32 -93 -32 -16 0
-27 -6 -27 -13 0 -15 -41 -37 -69 -37 -9 0 -25 6 -35 13 -17 12 -14 15 31 35
27 11 58 31 68 43 l20 22 -48 -5 c-47 -6 -48 -5 -43 18 5 18 3 22 -9 18 -8 -4
-15 -11 -15 -18 0 -6 -7 -2 -15 8 -14 18 -12 21 28 42 55 29 92 30 111 2z
m351 -17 c6 -11 -21 -41 -38 -41 -22 0 -40 18 -34 34 7 17 62 23 72 7z m332
-7 c-3 -3 -12 -4 -19 -1 -8 3 -5 6 6 6 11 1 17 -2 13 -5z m196 -18 c21 -16 22
-27 2 -20 -9 4 -15 0 -15 -7 -1 -9 -4 -8 -11 4 -6 9 -14 15 -20 12 -15 -10
-10 -42 7 -49 15 -6 11 -26 -6 -26 -14 0 -43 68 -36 85 7 19 55 19 79 1z m212
4 c3 -5 1 -10 -4 -10 -6 0 -11 5 -11 10 0 6 2 10 4 10 3 0 8 -4 11 -10z
m-2328 -16 c4 -12 -44 -41 -53 -32 -3 4 0 16 6 28 11 21 40 24 47 4z m1691
-18 c14 -31 8 -36 -45 -36 -35 0 -43 3 -43 18 0 45 69 60 88 18z m-1386 -13
c24 -21 23 -58 -2 -83 -11 -11 -23 -20 -27 -21 -5 0 -25 -2 -45 -4 -29 -3 -41
1 -52 16 -17 25 -6 74 21 95 25 19 83 17 105 -3z m1222 2 c17 -13 22 -13 37 1
15 14 17 13 21 -11 3 -14 1 -28 -3 -31 -5 -3 -9 0 -9 6 0 8 -6 8 -20 0 -10 -6
-17 -16 -14 -23 3 -8 -12 -17 -41 -25 -41 -11 -66 -34 -52 -48 3 -3 23 -6 45
-7 28 -2 45 -9 59 -25 13 -17 33 -25 72 -30 30 -4 56 -13 59 -19 2 -7 -3 -13
-12 -13 -9 0 -13 -6 -10 -14 4 -11 -3 -13 -38 -9 -50 7 -68 18 -68 44 0 24
-16 24 -29 0 -9 -16 -23 -18 -96 -19 -48 0 -88 -2 -90 -4 -12 -11 11 -50 38
-63 39 -19 87 -20 87 -1 0 8 -6 17 -12 19 -7 3 -3 6 10 6 31 1 72 -41 65 -67
-2 -11 -21 -26 -44 -35 -33 -13 -39 -20 -39 -45 0 -16 7 -35 16 -42 13 -11 16
-10 21 8 3 12 12 22 19 22 17 0 19 -20 2 -20 -8 -1 -6 -6 5 -14 16 -12 16 -14
2 -20 -14 -5 -13 -9 4 -27 l20 -22 40 26 c43 28 114 37 127 16 4 -6 20 -9 39
-6 39 6 68 -8 45 -23 -13 -8 -13 -10 2 -10 21 0 33 -19 21 -31 -5 -5 -22 -4
-41 3 -24 9 -35 10 -40 2 -10 -16 -48 -34 -72 -34 -11 0 -39 -9 -60 -20 -22
-11 -53 -19 -69 -18 -16 1 -36 -4 -44 -10 -9 -8 -26 -10 -42 -6 -20 5 -32 1
-53 -19 -15 -14 -52 -37 -83 -51 -45 -20 -58 -30 -62 -53 -4 -15 -10 -48 -15
-73 -11 -56 -21 -80 -33 -80 -12 0 -12 17 1 25 5 3 9 18 9 33 0 15 1 38 3 52
3 23 0 25 -36 25 -32 0 -46 7 -86 48 -40 39 -55 47 -85 47 -29 0 -36 -3 -31
-15 3 -8 1 -15 -5 -15 -6 0 -8 -9 -4 -20 4 -13 2 -20 -7 -20 -8 0 -18 -13 -24
-29 -9 -23 -19 -29 -48 -33 -46 -5 -57 9 -26 34 20 16 21 21 9 29 -7 5 -19 9
-26 9 -18 0 -26 36 -13 60 14 27 38 25 69 -4 22 -21 29 -23 43 -12 16 12 15
16 -13 54 -17 23 -32 42 -33 42 -8 0 -74 -35 -87 -47 -15 -12 -18 -10 -28 18
-6 18 -11 54 -11 81 0 41 3 51 20 55 28 7 25 22 -7 34 l-28 11 30 12 c27 12
31 11 39 -6 8 -15 16 -18 35 -13 14 3 40 9 56 12 34 6 65 30 65 48 0 7 9 23
19 36 15 19 22 21 32 12 10 -10 9 -14 -4 -19 -21 -8 -23 -60 -3 -67 19 -7 26
1 26 29 0 43 73 45 88 3 7 -18 10 -19 20 -6 11 13 8 20 -18 44 -21 20 -29 34
-24 46 7 19 29 23 39 7 3 -5 13 -10 21 -10 8 0 14 5 14 10 0 24 80 80 113 80
8 0 27 16 41 35 17 22 35 35 50 35 13 0 29 6 35 14 10 11 6 17 -20 30 -30 15
-31 15 -26 -4 10 -38 -52 -41 -86 -4 -20 22 -25 23 -30 10 -4 -9 -16 -16 -29
-16 -17 0 -19 -3 -10 -12 33 -33 -9 -80 -54 -59 -31 14 -31 44 1 65 15 10 22
22 19 31 -5 12 5 15 52 17 33 1 68 1 79 0 68 -6 124 5 132 24 3 8 18 14 34 14
19 0 29 5 29 15 0 9 -9 15 -23 15 -30 0 -40 10 -26 27 15 17 39 16 63 -2z
m-1404 -25 c0 -27 -56 -88 -68 -75 -6 6 -8 25 -5 43 5 30 8 33 32 28 14 -3 20
-3 14 0 -20 9 -15 24 7 24 13 0 20 -7 20 -20z m2267 14 c-3 -3 -12 -4 -19 -1
-8 3 -5 6 6 6 11 1 17 -2 13 -5z m90 0 c-3 -3 -12 -4 -19 -1 -8 3 -5 6 6 6 11
1 17 -2 13 -5z m-1106 -24 c26 -14 24 -32 -3 -28 -13 2 -24 11 -26 21 -4 20 2
21 29 7z m789 -15 c-7 -8 -20 -15 -29 -15 -12 1 -11 5 8 21 26 22 41 18 21 -6z
m-366 -31 c23 -23 10 -34 -24 -22 -34 11 -39 24 -12 31 9 3 18 5 19 6 1 0 9
-6 17 -15z m-849 -4 c3 -5 1 -10 -4 -10 -6 0 -11 5 -11 10 0 6 2 10 4 10 3 0
8 -4 11 -10z m649 -21 c-7 -11 -51 -12 -58 0 -9 14 2 18 34 13 16 -2 27 -8 24
-13z m-833 -23 c1 5 1 12 0 16 0 4 6 5 14 2 34 -13 9 -57 -30 -52 -33 4 -51
28 -41 53 6 17 8 16 31 -5 14 -13 26 -19 26 -14z m-295 -4 c12 -9 24 -24 27
-32 4 -11 7 -10 12 7 8 25 34 38 48 24 11 -11 14 -67 4 -77 -9 -9 -68 -15 -89
-9 -22 8 -50 63 -42 87 7 22 13 22 40 0z m541 3 c8 -21 -1 -28 -27 -20 -17 5
-19 10 -9 21 15 18 28 18 36 -1z m-1017 -14 c0 -4 -10 -31 -21 -60 -23 -53
-43 -65 -54 -31 -6 19 -1 31 40 86 11 15 35 19 35 5z m1680 -1 c0 -5 10 -10
23 -10 12 0 29 -4 37 -10 9 -5 19 -5 27 2 9 7 17 7 26 1 6 -6 25 -13 40 -17
20 -5 27 -12 25 -24 -4 -23 -88 -31 -88 -9 0 8 -22 23 -52 33 -46 17 -76 44
-49 44 6 0 11 -4 11 -10z m224 -6 c19 5 39 -1 74 -21 l47 -28 -39 -3 c-28 -2
-47 3 -67 17 -16 12 -35 21 -44 21 -8 0 -15 8 -15 18 0 13 2 14 9 3 6 -9 18
-11 35 -7z m-836 -26 c-2 -5 -7 -9 -11 -9 -4 1 -16 1 -27 1 -32 0 -23 15 10
16 17 1 29 -3 28 -8z m-747 -18 c13 -7 19 -21 19 -45 0 -39 -20 -55 -69 -55
-50 0 -72 55 -38 98 12 15 61 16 88 2z m339 -22 c20 -33 13 -68 -14 -68 -22 0
-41 29 -28 42 7 7 12 22 12 35 0 31 7 29 30 -9z m-577 -2 c35 -27 8 -73 -37
-62 -33 8 -45 45 -20 63 22 16 34 16 57 -1z m3863 4 c11 0 13 -6 9 -20 -3 -10
-1 -29 6 -42 7 -12 16 -38 20 -56 6 -29 5 -33 -9 -27 -10 4 -24 9 -33 12 -11
3 -15 12 -12 24 3 11 -1 25 -9 32 -17 13 -31 71 -21 81 4 4 13 4 21 1 7 -3 20
-5 28 -5z m-1858 -16 c18 -8 32 -17 32 -19 0 -3 -12 -11 -27 -19 -25 -13 -31
-12 -55 2 -63 37 -17 70 50 36z m-348 -1 c-8 -3 -23 -10 -32 -15 -14 -6 -16
-5 -12 7 4 8 18 15 33 14 15 0 20 -3 11 -6z m2094 -45 c4 -18 8 -45 9 -60 1
-14 12 -35 25 -46 12 -11 22 -24 22 -31 0 -15 -9 -14 -27 5 -14 14 -17 14 -25
1 -11 -20 -62 -31 -85 -18 -22 11 -49 -1 -39 -18 11 -17 -5 -13 -26 6 -25 23
-54 6 -51 -31 1 -17 -3 -26 -13 -26 -8 0 -14 -4 -14 -10 0 -5 9 -10 20 -10 11
0 20 -4 20 -9 0 -16 -36 -22 -66 -11 -27 11 -28 12 -10 25 11 9 15 18 10 27
-5 7 -7 21 -6 31 2 9 -4 20 -12 23 -9 3 -16 14 -16 24 0 11 -5 22 -10 25 -15
9 -41 75 -34 86 10 16 53 9 64 -10 6 -13 7 -22 0 -26 -5 -3 -2 -19 9 -38 15
-28 23 -32 65 -35 51 -3 146 24 146 42 0 6 3 28 6 49 5 29 3 37 -9 37 -8 0
-17 7 -21 15 -4 11 2 15 28 15 30 0 34 -4 40 -32z m-1680 -13 c11 -8 35 -15
53 -15 25 0 31 -4 27 -15 -4 -10 0 -15 12 -15 15 0 19 -8 20 -35 0 -35 0 -35
-33 -29 -34 6 -83 -15 -83 -37 0 -5 10 -1 22 11 26 24 54 26 62 5 8 -23 -5
-75 -19 -75 -7 0 -18 -7 -25 -15 -10 -12 -9 -16 4 -21 19 -7 21 -49 4 -87 -14
-30 -35 -35 -44 -12 -4 8 -12 15 -18 15 -8 0 -11 13 -8 38 3 34 2 36 -12 19
-8 -11 -12 -25 -9 -33 4 -10 -4 -14 -29 -14 -27 0 -37 -5 -46 -25 -11 -23 -59
-52 -69 -41 -3 2 -2 14 2 26 5 17 12 20 31 16 19 -5 24 -2 24 13 0 10 7 24 15
31 8 7 15 18 15 24 0 6 14 25 30 43 17 18 34 42 39 55 12 33 4 108 -14 128
-18 20 -19 32 -3 48 16 16 29 15 52 -3z m2283 -17 c-3 -8 -6 -5 -6 6 -1 11 2
17 5 13 3 -3 4 -12 1 -19z m-2567 -34 c0 -8 -10 -14 -25 -14 -27 0 -32 9 -14
27 14 14 39 6 39 -13z m-792 7 c10 -6 9 -10 -7 -14 -14 -3 -21 0 -21 9 0 16 9
18 28 5z m3378 -17 c-3 -9 -6 -22 -6 -30 0 -7 -13 -20 -30 -29 -38 -20 -40 -4
-4 42 26 34 51 45 40 17z m-2436 -8 c0 -11 -19 -15 -25 -6 -3 5 1 10 9 10 9 0
16 -2 16 -4z m435 -10 c33 -12 36 -15 17 -18 -33 -5 -31 -20 4 -34 30 -12 31
-12 26 12 -5 25 9 31 42 18 13 -5 14 -9 5 -20 -16 -19 -10 -23 42 -28 24 -2
48 -4 53 -5 15 -2 -16 -31 -33 -31 -9 0 -21 -4 -27 -10 -12 -12 -66 -16 -83
-5 -8 4 -28 9 -45 11 -39 3 -64 34 -40 51 26 19 13 45 -31 59 l-40 12 35 1
c19 0 53 -6 75 -13z m-1615 -21 c0 -8 -7 -15 -15 -15 -26 0 -18 20 13 29 1 1
2 -6 2 -14z m-73 -31 c-9 -9 -27 6 -27 22 0 13 2 13 16 -1 9 -9 14 -18 11 -21z
m925 2 c10 -15 -1 -26 -26 -26 -13 0 -37 -7 -52 -15 -27 -14 -29 -13 -37 8 -6
13 -11 17 -14 10 -9 -24 -23 -13 -23 16 0 26 4 30 33 33 37 4 109 -12 119 -26z
m680 17 c10 -9 18 -20 18 -25 0 -13 -27 -9 -40 7 -7 8 -21 15 -31 15 -11 0
-19 5 -19 10 0 16 52 11 72 -7z m484 -5 c31 -15 26 -32 -12 -36 -38 -5 -50
-17 -35 -36 10 -12 8 -16 -9 -21 -35 -11 -80 5 -91 32 -10 28 -5 43 17 43 7 0
19 9 26 21 11 16 19 19 46 14 19 -3 45 -11 58 -17z m512 -49 c2 -9 -5 -19 -14
-23 -21 -8 -50 17 -39 34 10 16 49 8 53 -11z m-1040 -5 c12 -8 22 -24 22 -35
0 -16 7 -19 50 -19 43 0 50 -3 50 -19 0 -26 -45 -60 -70 -54 -11 3 -20 12 -20
19 0 8 -6 14 -13 14 -22 0 -37 -22 -37 -54 l-1 -31 -21 25 c-11 14 -27 24 -34
22 -8 -2 -14 4 -14 12 0 9 12 18 28 22 46 10 48 11 21 22 -15 6 -29 18 -33 27
-9 26 14 60 44 64 3 1 16 -6 28 -15z m792 12 c0 -2 -7 -6 -15 -10 -8 -3 -15
-1 -15 4 0 6 7 10 15 10 8 0 15 -2 15 -4z m-1150 -30 c0 -8 -4 -17 -8 -20 -13
-8 -35 11 -28 23 10 16 36 14 36 -3z m95 -5 c-3 -6 -11 -11 -16 -11 -5 0 -4 6
3 14 14 16 24 13 13 -3z m805 -42 c0 -5 -12 -9 -27 -9 -27 1 -27 1 -9 15 19
14 36 12 36 -6z m-323 -35 c8 -22 -2 -27 -26 -14 -12 6 -21 20 -21 31 0 17 3
18 21 9 11 -6 23 -18 26 -26z m438 15 c0 -8 -10 -15 -22 -17 -25 -4 -33 22
-10 31 18 8 32 2 32 -14z m520 1 c9 -15 -3 -47 -21 -54 -16 -6 -35 30 -27 52
6 14 39 16 48 2z m-341 -29 c7 -11 -14 -20 -32 -13 -11 4 -11 6 0 13 17 11 26
11 32 0z m190 -33 c-1 -33 1 -37 25 -36 66 2 96 -33 45 -53 -33 -12 -61 -4
-69 20 -3 10 -14 17 -28 17 -17 -1 -22 5 -23 25 -1 14 -4 31 -8 38 -12 18 4
32 32 29 24 -3 27 -7 26 -40z m-577 -3 c1 -5 -2 -17 -7 -25 -8 -13 -14 -11
-37 13 l-28 28 34 -3 c19 -2 36 -7 38 -13z m-857 -31 c0 -9 -5 -14 -12 -12
-18 6 -21 28 -4 28 9 0 16 -7 16 -16z m600 1 c15 -18 6 -45 -13 -45 -8 0 -20
7 -27 15 -10 12 -10 18 0 30 16 19 24 19 40 0z m126 -21 c34 -26 44 -57 23
-69 -5 -4 -14 -18 -19 -31 -12 -29 -40 -32 -40 -4 0 11 -7 23 -16 27 -8 3 -14
15 -12 27 1 11 -2 27 -6 35 -6 9 -3 18 9 28 24 17 21 17 61 -13z m-366 -4 c0
-13 -7 -20 -20 -20 -19 0 -27 20 -13 33 13 14 33 6 33 -13z m487 8 c44 -16 42
-33 -7 -58 -29 -15 -38 -16 -34 -6 3 8 -3 19 -15 26 -33 17 -25 46 13 49 5 1
25 -4 43 -11z m101 1 c-2 -6 -8 -10 -13 -10 -5 0 -11 4 -13 10 -2 6 4 11 13
11 9 0 15 -5 13 -11z m176 -4 c20 -15 14 -35 -13 -35 -23 0 -41 19 -34 36 7
18 23 17 47 -1z m236 5 c0 -5 -7 -10 -15 -10 -8 0 -15 5 -15 10 0 6 7 10 15
10 8 0 15 -4 15 -10z m330 0 c13 -9 13 -11 0 -20 -18 -11 -32 -12 -54 -4 -15
6 -15 8 1 20 22 16 33 17 53 4z m-446 -16 c29 -11 37 -39 21 -77 -21 -51 -77
-65 -115 -27 -27 27 -25 40 9 78 29 31 53 38 85 26z m129 -28 c31 -29 27 -56
-9 -56 -18 0 -25 7 -32 33 -15 53 0 61 41 23z m-2504 -33 c-1 -42 -2 -44 -9
-21 -7 25 -3 68 6 68 2 0 4 -21 3 -47z m1080 22 c0 -5 -12 -8 -27 -7 -32 5
-36 7 -28 20 8 13 56 1 55 -13z m995 -7 c14 -23 5 -29 -32 -22 -23 5 -32 12
-32 26 0 15 6 19 26 16 15 -2 32 -11 38 -20z m628 5 c20 -17 23 -38 9 -48 -13
-8 -41 23 -41 46 0 23 8 24 32 2z m-1692 3 c0 -2 -7 -7 -16 -10 -8 -3 -12 -2
-9 4 6 10 25 14 25 6z m-767 -26 c12 0 28 -9 35 -21 17 -26 10 -34 -16 -18
-11 7 -27 9 -36 6 -9 -4 -20 -8 -24 -9 -4 -2 -7 10 -7 25 -1 19 3 26 13 22 7
-3 23 -5 35 -5z m1201 1 c10 -16 -21 -20 -41 -6 -17 13 -16 14 9 15 15 0 29
-4 32 -9z m352 -15 c9 -23 -25 -66 -52 -66 -34 0 -37 15 -8 49 28 33 51 40 60
17z m854 -30 c0 -29 -13 -46 -36 -46 -41 0 -74 74 -36 83 23 5 72 -20 72 -37z
m-3722 12 c3 -14 -3 -18 -27 -18 -34 0 -34 0 -25 25 8 21 48 16 52 -7z m343 0
c1 -17 2 -19 6 -5 2 9 11 17 18 17 25 0 27 -21 4 -46 l-23 -25 -14 26 c-8 16
-19 24 -27 21 -22 -8 -28 11 -8 23 29 17 43 13 44 -11z m2699 -29 c0 -34 -12
-49 -41 -49 -52 0 -64 71 -16 90 26 9 57 -13 57 -41z m124 -1 c13 -19 14 -25
2 -43 -32 -49 -93 -12 -87 53 2 22 68 15 85 -10z m79 15 c-7 -2 -19 -2 -25 0
-7 3 -2 5 12 5 14 0 19 -2 13 -5z m-2960 -48 c-4 -11 3 -15 26 -15 38 0 41
-15 5 -24 -15 -4 -27 -6 -28 -4 -12 20 -23 57 -19 62 10 10 22 -4 16 -19z
m320 -26 c19 -24 21 -35 8 -44 -11 -6 -112 66 -105 76 8 13 79 -10 97 -32z
m-211 19 c7 -19 -4 -68 -14 -68 -6 0 -8 9 -5 20 3 12 -1 24 -11 30 -15 8 -15
11 -2 20 20 13 27 13 32 -2z m2516 -10 c7 -7 12 -19 12 -27 -1 -13 -3 -12 -15
3 -12 16 -17 17 -30 6 -12 -10 -15 -10 -15 2 0 29 27 37 48 16z m-1040 -30
c-2 -26 -8 -34 -27 -36 -13 -2 -28 1 -34 7 -15 15 18 61 44 61 17 0 20 -5 17
-32z m2812 -108 c0 -5 -4 -10 -10 -10 -5 0 -10 5 -10 10 0 6 5 10 10 10 6 0
10 -4 10 -10z m-231 -111 c-20 -12 -22 -4 -8 23 12 21 13 21 17 4 2 -10 -2
-22 -9 -27z m-169 11 c0 -5 -2 -10 -4 -10 -3 0 -8 5 -11 10 -3 6 -1 10 4 10 6
0 11 -4 11 -10z m120 -10 c0 -5 -7 -10 -15 -10 -8 0 -15 5 -15 10 0 6 7 10 15
10 8 0 15 -4 15 -10z m-130 -30 c0 -5 -8 -10 -17 -10 -15 0 -16 2 -3 10 19 12
20 12 20 0z m162 -30 c10 0 18 6 18 13 0 6 9 -3 21 -22 11 -18 17 -36 14 -40
-4 -3 -29 -7 -56 -7 -46 -2 -49 -1 -43 21 4 15 0 24 -10 28 -9 4 -16 2 -16 -3
0 -6 -4 -10 -10 -10 -5 0 -10 4 -10 9 0 14 53 30 65 20 5 -5 17 -9 27 -9z
m-215 -25 c8 -8 20 -12 26 -8 15 9 59 4 72 -8 14 -14 -14 -30 -40 -23 -13 3
-28 -2 -39 -15 -17 -19 -21 -19 -47 -5 -34 17 -34 18 -11 49 20 29 20 29 39
10z m-3257 -51 c0 -9 -7 -14 -17 -12 -25 5 -28 28 -4 28 12 0 21 -6 21 -16z
m-112 -16 c-6 -18 -28 -21 -28 -4 0 9 7 16 16 16 9 0 14 -5 12 -12z m3482 -3
c-7 -8 -19 -15 -27 -15 -13 0 -13 3 -3 15 7 8 19 15 27 15 13 0 13 -3 3 -15z"/>
<path d="M1065 4821 c-8 -14 22 -19 90 -16 78 4 77 3 70 15 -8 13 -152 13
-160 1z"/>
<path d="M1000 4781 c0 -12 37 -24 50 -16 20 12 10 25 -20 25 -16 0 -30 -4
-30 -9z"/>
<path d="M797 4739 c8 -17 20 -32 27 -34 28 -10 49 -9 53 1 6 18 -26 44 -53
44 -13 0 -24 5 -24 10 0 6 -4 10 -9 10 -5 0 -3 -14 6 -31z"/>
<path d="M922 4748 c-21 -21 -13 -28 30 -28 40 0 41 0 23 20 -21 23 -36 25
-53 8z"/>
<path d="M1405 4750 c-19 -8 -19 -9 3 -9 12 -1 22 4 22 9 0 6 -1 10 -2 9 -2 0
-12 -4 -23 -9z"/>
<path d="M773 4693 c-7 -3 -13 -9 -13 -14 0 -12 37 -12 44 0 7 11 -14 20 -31
14z"/>
<path d="M880 4640 c1 -15 17 -28 28 -21 7 4 39 -1 73 -12 52 -18 63 -18 86
-6 l25 14 -28 11 c-29 12 -184 24 -184 14z"/>
<path d="M1700 4630 c0 -5 5 -10 10 -10 6 0 10 5 10 10 0 6 -4 10 -10 10 -5 0
-10 -4 -10 -10z"/>
<path d="M1828 4613 c7 -3 16 -2 19 1 4 3 -2 6 -13 5 -11 0 -14 -3 -6 -6z"/>
<path d="M1650 4601 c-22 -4 -35 -12 -35 -21 0 -9 6 -13 15 -11 8 2 41 4 73 4
48 0 57 3 55 16 -4 18 -50 23 -108 12z"/>
<path d="M1160 4540 c0 -5 7 -10 15 -10 8 0 15 5 15 10 0 6 -7 10 -15 10 -8 0
-15 -4 -15 -10z"/>
<path d="M1724 4495 c11 -8 27 -13 37 -10 9 3 22 -1 29 -10 15 -18 46 -20 56
-3 13 20 -28 38 -85 38 -52 -1 -54 -2 -37 -15z"/>
<path d="M1205 4493 c-14 -4 -3 -11 39 -24 60 -19 76 -18 76 5 0 22 -62 32
-115 19z"/>
<path d="M2095 1730 c-8 -13 -1 -24 14 -19 6 3 7 10 2 18 -6 10 -10 10 -16 1z"/>
<path d="M955 1370 c-3 -5 1 -10 10 -10 9 0 13 5 10 10 -3 6 -8 10 -10 10 -2
0 -7 -4 -10 -10z"/>
<path d="M805 1299 c-10 -15 3 -25 16 -12 7 7 7 13 1 17 -6 3 -14 1 -17 -5z"/>
<path d="M1816 1019 c-14 -11 -26 -29 -26 -40 0 -26 14 -24 30 6 7 14 16 25
20 25 3 0 15 7 26 15 19 14 19 14 -2 15 -12 0 -33 -9 -48 -21z"/>
<path d="M1876 935 c-3 -10 1 -15 11 -15 9 0 30 -12 45 -27 l28 -27 0 26 c0
45 -69 81 -84 43z"/>
<path d="M1743 849 c-26 -18 -43 -38 -43 -50 0 -26 16 -24 35 5 9 13 29 29 45
36 30 12 42 40 18 40 -7 -1 -32 -14 -55 -31z"/>
<path d="M1856 845 c4 -8 13 -15 21 -15 12 0 12 2 -1 15 -8 8 -17 15 -20 15
-3 0 -3 -7 0 -15z"/>
<path d="M1638 833 c7 -3 16 -2 19 1 4 3 -2 6 -13 5 -11 0 -14 -3 -6 -6z"/>
<path d="M2010 820 c0 -5 7 -10 16 -10 8 0 12 5 9 10 -3 6 -10 10 -16 10 -5 0
-9 -4 -9 -10z"/>
<path d="M2179 779 c-10 -6 -7 -9 14 -9 29 0 35 5 14 13 -8 3 -20 1 -28 -4z"/>
<path d="M1478 768 c7 -7 12 -19 12 -28 0 -9 11 -22 25 -28 38 -18 41 -15 15
13 -13 14 -20 25 -15 25 12 0 -27 29 -39 30 -6 0 -5 -5 2 -12z"/>
<path d="M1860 760 c0 -11 -4 -22 -10 -25 -18 -11 -11 -23 10 -18 11 3 20 12
20 19 0 8 4 14 8 14 5 0 17 6 27 14 18 13 17 14 -18 14 -29 0 -37 -4 -37 -18z"/>
<path d="M1965 750 c-3 -5 1 -10 10 -10 9 0 13 5 10 10 -3 6 -8 10 -10 10 -2
0 -7 -4 -10 -10z"/>
<path d="M1893 703 c-7 -2 -13 -9 -13 -14 0 -15 53 -6 58 9 4 12 -21 15 -45 5z"/>
<path d="M1766 655 c4 -22 2 -41 -6 -50 -10 -12 -10 -15 3 -15 16 0 38 22 41
42 1 7 5 18 9 25 5 7 0 16 -12 22 -35 19 -42 14 -35 -24z"/>
<path d="M1403 605 c-3 -9 -3 -18 0 -21 9 -9 27 6 27 22 0 19 -19 18 -27 -1z"/>
<path d="M818 1053 c7 -3 16 -2 19 1 4 3 -2 6 -13 5 -11 0 -14 -3 -6 -6z"/>
<path d="M2690 790 c-8 -5 -12 -12 -9 -15 8 -8 39 5 39 16 0 11 -11 11 -30 -1z"/>
<path d="M3261 511 c-10 -6 -9 -10 3 -14 8 -3 18 -2 21 3 8 13 -9 20 -24 11z"/>
<path d="M3380 495 c0 -8 7 -15 15 -15 8 0 15 4 15 9 0 5 -7 11 -15 15 -9 3
-15 0 -15 -9z"/>
<path d="M5097 1248 c-16 -8 -18 -17 -12 -54 4 -26 2 -44 -3 -44 -21 0 -22
-34 -2 -55 11 -12 20 -27 20 -33 0 -7 5 -12 10 -12 15 0 13 117 -2 123 -10 3
-10 7 0 20 7 9 12 27 10 41 -3 21 -6 23 -21 14z"/>
<path d="M4712 348 c7 -19 38 -22 38 -4 0 10 -9 16 -21 16 -12 0 -19 -5 -17
-12z"/>
<path d="M4925 158 c-13 -19 -18 -21 -35 -10 -31 19 -45 14 -20 -8 22 -19 24
-19 51 -3 16 10 29 23 29 30 0 19 -7 16 -25 -9z"/>
<path d="M5020 101 c0 -14 5 -19 15 -14 17 6 15 25 -3 31 -7 2 -12 -5 -12 -17z"/>
<path d="M5100 44 c-9 -3 -21 -13 -28 -24 -11 -18 -10 -20 18 -20 25 0 30 4
30 25 0 14 -1 24 -2 24 -2 -1 -10 -3 -18 -5z"/>
<path d="M4960 10 c-12 -8 -9 -10 13 -10 16 0 26 4 22 10 -8 12 -16 12 -35 0z"/>
<path d="M5028 3 c7 -3 16 -2 19 1 4 3 -2 6 -13 5 -11 0 -14 -3 -6 -6z"/>
</g>
</svg>
